<svg width="50" height="50" viewBox="0 0 50 50" fill="none" xmlns="http://www.w3.org/2000/svg">
<path d="M42.8297 36.7029L39.8297 39.6525L38.0331 37.8778C37.7008 37.5511 37.162 37.5511 36.8298 37.8778C36.4975 38.2045 36.4975 38.7342 36.8298 39.0609L39.2281 41.419C39.387 41.5768 39.6038 41.6655 39.8297 41.6655C40.0557 41.6655 40.2721 41.5768 40.4314 41.419L44.0669 37.8778C44.3086 37.6744 44.4141 37.3546 44.3396 37.0503C44.2651 36.7456 44.0235 36.508 43.714 36.4347C43.4044 36.3615 43.0792 36.4653 42.8719 36.7029H42.8297Z" fill="#FFBB01"/>
<path d="M44.0669 30.9123V28.3292C44.0669 27.8691 43.6875 27.496 43.2195 27.496H40.6771V26.6628C40.6771 25.2824 41.8155 24.1632 43.2195 24.1632C43.6875 24.1632 44.0669 23.7901 44.0669 23.33C44.0669 22.8698 43.6875 22.4968 43.2195 22.4968C40.8795 22.4968 38.9823 24.3621 38.9823 26.6628V27.496H36.44C35.972 27.496 35.5925 27.8691 35.5925 28.3292V30.9123C31.2465 32.8708 28.8751 37.5414 29.8942 42.1334C30.9138 46.7258 35.0488 50.0001 39.8297 50.0001C44.6102 50.0001 48.7456 46.7258 49.7652 42.1334C50.7843 37.5414 48.4129 32.8708 44.0669 30.9123ZM40.6771 48.3263V47.4931C40.6771 47.033 40.2977 46.6599 39.8297 46.6599C39.3617 46.6599 38.9823 47.033 38.9823 47.4931V48.3263C34.9412 47.9455 31.7426 44.8006 31.3553 40.8274H32.2028C32.6708 40.8274 33.0502 40.4543 33.0502 39.9942C33.0502 39.5341 32.6708 39.161 32.2028 39.161H31.3553C31.6748 36.0491 33.7396 33.3753 36.7027 32.237C37.0288 32.1133 37.2439 31.8057 37.2452 31.4619V29.1625H42.3298V31.4619C42.3306 31.8057 42.5458 32.1133 42.8719 32.237C45.8681 33.3505 47.9698 36.0291 48.3041 39.161H47.4567C46.9887 39.161 46.6092 39.5341 46.6092 39.9942C46.6092 40.4543 46.9887 40.8274 47.4567 40.8274H48.3041C47.9168 44.8006 44.7182 47.9455 40.6771 48.3263Z" fill="#FFBB01"/>
<path d="M27.296 43.327C27.1181 43.327 4.2372 43.327 4.2372 43.327C2.83321 43.327 1.69488 42.2078 1.69488 40.8274L1.69488 14.1646L45.7617 14.1646V29.5457C45.7617 30.0058 46.1412 30.3789 46.6092 30.3789C47.0771 30.3789 47.4566 30.0058 47.4566 29.5457V8.33212C47.4566 6.03143 45.5594 4.16606 43.2194 4.16606H41.5245V3.33285C41.5245 2.87271 41.1451 2.49964 40.6771 2.49964C40.2091 2.49964 39.8296 2.87271 39.8296 3.33285V6.6657C39.8296 7.58598 39.0708 8.33212 38.1348 8.33212C37.1988 8.33212 36.4399 7.58598 36.4399 6.6657V3.33285C36.4399 2.41257 37.1988 1.66642 38.1348 1.66642C38.6028 1.66642 38.9822 1.29335 38.9822 0.833212C38.9822 0.373074 38.6028 0 38.1348 0C36.2628 0 34.745 1.4923 34.745 3.33285V4.16606H27.1181V3.33285C27.1181 2.87271 26.7386 2.49964 26.2706 2.49964C25.8026 2.49964 25.4232 2.87271 25.4232 3.33285V6.6657C25.4232 7.58598 24.6643 8.33212 23.7283 8.33212C22.7923 8.33212 22.0334 7.58598 22.0334 6.6657V3.33285C22.0334 2.41257 22.7923 1.66642 23.7283 1.66642C24.1963 1.66642 24.5757 1.29335 24.5757 0.833212C24.5757 0.373074 24.1963 0 23.7283 0C21.8563 0 20.3385 1.4923 20.3385 3.33285V4.16606L12.7116 4.16606V3.33285C12.7116 2.87271 12.3321 2.49964 11.8641 2.49964C11.3962 2.49964 11.0167 2.87271 11.0167 3.33285V6.6657C11.0167 7.58598 10.2578 8.33212 9.32183 8.33212C8.38584 8.33212 7.62695 7.58598 7.62695 6.6657V3.33285C7.62695 2.41257 8.38584 1.66642 9.32183 1.66642C9.78983 1.66642 10.1693 1.29335 10.1693 0.833212C10.1693 0.373074 9.78983 0 9.32183 0C7.44985 0 5.93207 1.4923 5.93207 3.33285V4.16606H4.2372C1.89722 4.16606 0 6.03143 0 8.33212L0 40.8274C0 43.1281 1.89722 44.9935 4.2372 44.9935H23.7283C28.1774 44.9935 28.1774 44.9935 28.1774 44.1603C28.1786 43.9389 28.09 43.7257 27.9316 43.5687C27.7636 43.4043 27.5331 43.3165 27.296 43.327ZM4.2372 5.83249H5.93207V6.6657C5.93207 8.50625 7.44985 9.99855 9.32183 9.99855C11.1938 9.99855 12.7116 8.50625 12.7116 6.6657V5.83249L20.3385 5.83249V6.6657C20.3385 8.50625 21.8563 9.99855 23.7283 9.99855C25.6003 9.99855 27.1181 8.50625 27.1181 6.6657V5.83249H34.745V6.6657C34.745 8.50625 36.2628 9.99855 38.1348 9.99855C40.0067 9.99855 41.5245 8.50625 41.5245 6.6657V5.83249H43.2194C44.6234 5.83249 45.7617 6.95171 45.7617 8.33212V12.4982L1.69488 12.4982L1.69488 8.33212C1.69488 6.95171 2.83321 5.83249 4.2372 5.83249Z" fill="#FFBB01"/>
<path d="M15.2541 17.4975C15.2541 17.0373 14.8746 16.6642 14.4066 16.6642H7.6271C7.15911 16.6642 6.77966 17.0373 6.77966 17.4975V24.1632C6.77966 24.6233 7.15911 24.9964 7.6271 24.9964H14.4066C14.8746 24.9964 15.2541 24.6233 15.2541 24.1632V17.4975ZM13.5592 23.3299H8.47454V18.3307H13.5592V23.3299Z" fill="#FFBB01"/>
<path d="M14.4066 29.9956C14.8746 29.9956 15.2541 29.6226 15.2541 29.1624C15.2541 28.7023 14.8746 28.3292 14.4066 28.3292H7.6271C7.15911 28.3292 6.77966 28.7023 6.77966 29.1624V35.8281C6.77966 36.2883 7.15911 36.6613 7.6271 36.6613H14.4066C14.8746 36.6613 15.2541 36.2883 15.2541 35.8281V32.4953C15.2541 32.0351 14.8746 31.6621 14.4066 31.6621C13.9386 31.6621 13.5592 32.0351 13.5592 32.4953V34.9949H8.47454V29.9956H14.4066Z" fill="#FFBB01"/>
<path d="M19.4912 28.3292C19.0232 28.3292 18.6438 28.7023 18.6438 29.1624V35.8281C18.6438 36.2883 19.0232 36.6613 19.4912 36.6613H26.2707C26.7387 36.6613 27.1182 36.2883 27.1182 35.8281V29.1624C27.1182 28.7023 26.7387 28.3292 26.2707 28.3292H19.4912ZM25.4233 34.9949H20.3387V29.9956H25.4233V34.9949Z" fill="#FFBB01"/>
<path d="M38.1349 23.3299C38.6029 23.3299 38.9823 22.9569 38.9823 22.4967V17.4975C38.9823 17.0373 38.6029 16.6642 38.1349 16.6642H31.3554C30.8874 16.6642 30.5079 17.0373 30.5079 17.4975V24.1632C30.5079 24.6233 30.8874 24.9964 31.3554 24.9964C31.8234 24.9964 32.2028 24.6233 32.2028 24.1632V18.3307H37.2874V22.4967C37.2874 22.9569 37.6669 23.3299 38.1349 23.3299Z" fill="#FFBB01"/>
<path d="M26.8725 16.9059C26.7132 16.7481 26.4968 16.6594 26.2708 16.6594C26.0449 16.6594 25.8281 16.7481 25.6692 16.9059L22.8811 19.6553L20.093 16.9059C19.7607 16.5792 19.2219 16.5792 18.8897 16.9059C18.5574 17.2326 18.5574 17.7623 18.8897 18.089L21.6861 20.8303L18.8897 23.5716C18.7291 23.7278 18.6389 23.941 18.6389 24.1632C18.6389 24.3853 18.7291 24.5985 18.8897 24.7547C19.0486 24.9126 19.2654 25.0012 19.4913 25.0012C19.7172 25.0012 19.9337 24.9126 20.093 24.7547L22.8811 22.0053L25.6692 24.7547C25.8281 24.9126 26.0449 25.0012 26.2708 25.0012C26.4968 25.0012 26.7132 24.9126 26.8725 24.7547C27.033 24.5985 27.1232 24.3853 27.1232 24.1632C27.1232 23.941 27.033 23.7278 26.8725 23.5716L24.0761 20.8303L26.8725 18.089C27.033 17.9328 27.1232 17.7196 27.1232 17.4975C27.1232 17.2753 27.033 17.0621 26.8725 16.9059Z" fill="#FFBB01"/>
</svg>
