<svg width="50" height="50" viewBox="0 0 50 50" fill="none" xmlns="http://www.w3.org/2000/svg">
<path d="M49.9081 11.8502C49.736 11.2101 49.3162 10.6645 48.7417 10.3337C48.1669 10.0012 47.4834 9.9113 46.8422 10.0834C46.2019 10.2559 45.6563 10.6755 45.3256 11.25L44.909 11.9751C44.5131 11.7476 44.0074 11.8815 43.776 12.2754L41.6596 15.8834L40.9346 15.4667C40.7426 15.3556 40.514 15.3255 40.3 15.3833C40.0856 15.4415 39.9033 15.5823 39.7931 15.7752C39.5673 16.1735 39.7048 16.6797 40.1014 16.9084L40.8264 17.325L33.7443 29.6L31.9945 34.2753L31.1613 35.8333C30.6735 36.6821 30.7256 37.7372 31.2948 38.5335L29.4201 40.8333L28.8953 39.517C28.6585 38.9303 28.1105 38.5282 27.4803 38.479C26.8497 38.4294 26.2456 38.7411 25.9205 39.2835L25.6207 39.7917L25.3375 36.4583C25.2724 35.6698 24.6618 35.0358 23.8766 34.9406C23.091 34.8458 22.3473 35.3166 22.0963 36.0669L20.0467 42.2168C19.9035 42.6518 20.1378 43.1205 20.5715 43.267C20.6529 43.3049 20.7403 43.3276 20.8298 43.3333C21.1878 43.3346 21.5068 43.1063 21.6215 42.7669L23.6626 36.617L23.9543 40C24.0145 40.7218 24.5332 41.322 25.2387 41.4856C25.9441 41.6492 26.674 41.3383 27.0454 40.717L27.3538 40.2083L27.8705 41.5169C28.0897 42.0683 28.5857 42.4618 29.1727 42.5492C29.7598 42.6367 30.3489 42.4052 30.7199 41.9417L32.6613 39.4836C32.8761 39.5398 33.0974 39.5679 33.3196 39.5671C34.2126 39.574 35.0417 39.1036 35.4941 38.3333L36.3273 36.9417L39.5018 33.0835L46.6588 20.6584L47.3837 21.075C47.577 21.1857 47.7177 21.3684 47.7751 21.5837C47.8329 21.7973 47.8028 22.0252 47.6921 22.2168L44.3594 27.9919C44.2336 28.1816 44.1909 28.4143 44.2414 28.6365C44.2918 28.8582 44.4305 29.0499 44.6258 29.1667C44.8179 29.2782 45.0465 29.3083 45.2605 29.2505C45.4749 29.1923 45.6571 29.0515 45.7674 28.8586L49.1002 23.0835C49.4325 22.5085 49.5224 21.825 49.35 21.1837C49.1775 20.5432 48.758 19.9976 48.1836 19.6668L47.4586 19.2501L49.5416 15.6417C49.769 15.2458 49.6351 14.7404 49.2417 14.5085L49.6583 13.7834C49.9997 13.1995 50.09 12.502 49.9081 11.8502ZM46.767 12.0833C46.8772 11.8905 47.0603 11.7493 47.2755 11.6919C47.4895 11.639 47.7157 11.6687 47.9085 11.7753C48.1018 11.8856 48.2426 12.0687 48.3003 12.2835C48.3532 12.4976 48.3235 12.7238 48.2169 12.9167L47.8003 13.6418L46.3504 12.8084L46.767 12.0833ZM35.4107 35.3503L34.9941 35.1086L33.761 34.3917L34.944 31.2252L37.5685 32.7417L35.4107 35.3503ZM32.9111 37.7584C32.5592 37.513 32.451 37.041 32.6613 36.6667L33.0779 35.942L34.5274 36.7753L34.1109 37.4919C33.9941 37.6945 33.798 37.8385 33.5698 37.8894C33.3415 37.9399 33.1027 37.8927 32.9111 37.7584ZM38.5185 31.3753L35.6357 29.7087L42.3012 18.1584L45.184 19.825L38.5185 31.3753ZM46.0172 18.3834L43.1344 16.7167L44.8008 13.8334L47.6836 15.5001L46.0172 18.3834Z" fill="#FFBB01"/>
<path d="M13.1475 37.3416L10.1984 40.283L8.43197 38.5166C8.10691 38.1935 7.5821 38.1935 7.25704 38.5166C7.09919 38.6732 7.0105 38.886 7.0105 39.1081C7.0105 39.3302 7.09919 39.5434 7.25704 39.6996L9.0235 41.4661C9.33595 41.7761 9.75824 41.9498 10.1984 41.9494C10.6411 41.9518 11.067 41.7781 11.3815 41.4661L14.3225 38.5166C14.6056 38.1858 14.5865 37.6931 14.2789 37.3856C13.971 37.0776 13.4783 37.0585 13.1475 37.3416Z" fill="#FFBB01"/>
<path d="M3.33276 39.5834C3.33276 43.4957 6.50361 46.6667 10.4149 46.6667C14.3262 46.6667 17.497 43.4957 17.497 39.5834C17.497 39.1232 17.124 38.75 16.6638 38.75C16.2037 38.75 15.8306 39.1232 15.8306 39.5834C15.8306 42.5749 13.4059 45 10.4149 45C7.42386 45 4.99915 42.5749 4.99915 39.5834C4.99915 36.5918 7.42386 34.1667 10.4149 34.1667C11.5874 34.1634 12.7285 34.5439 13.6643 35.2503C14.0324 35.5265 14.5548 35.4517 14.8306 35.0834C15.1069 34.7152 15.0324 34.1931 14.6642 33.9168C12.5182 32.3071 9.64679 32.0484 7.24771 33.2479C4.84821 34.4479 3.33276 36.9007 3.33276 39.5834Z" fill="#FFBB01"/>
<path d="M29.9948 6.66547C30.455 6.66547 30.828 6.29281 30.828 5.83228C30.828 5.37215 30.455 4.99908 29.9948 4.99908L8.33185 4.99908C7.87172 4.99908 7.49866 5.37215 7.49866 5.83228V9.16504C7.49866 9.62558 7.87172 9.99823 8.33185 9.99823H29.9948C30.455 9.99823 30.828 9.62558 30.828 9.16504C30.828 8.70491 30.455 8.33185 29.9948 8.33185H9.16504V6.66547L29.9948 6.66547Z" fill="#FFBB01"/>
<path d="M10.8315 11.6667C10.3714 11.6667 9.99829 12.0397 9.99829 12.4999C9.99829 12.9604 10.3714 13.3331 10.8315 13.3331H27.4953C27.9554 13.3331 28.3285 12.9604 28.3285 12.4999C28.3285 12.0397 27.9554 11.6667 27.4953 11.6667H10.8315Z" fill="#FFBB01"/>
<path d="M32.4946 17.4999H14.1644C13.7042 17.4999 13.3312 17.873 13.3312 18.3331C13.3312 18.7937 13.7042 19.1663 14.1644 19.1663H32.4946C32.9547 19.1663 33.3278 18.7937 33.3278 18.3331C33.3278 17.873 32.9547 17.4999 32.4946 17.4999Z" fill="#FFBB01"/>
<path d="M24.1625 23.3332C24.1625 22.8731 23.7894 22.5 23.3293 22.5H6.66547C6.20534 22.5 5.83228 22.8731 5.83228 23.3332C5.83228 23.7937 6.20534 24.1664 6.66547 24.1664H23.3293C23.7894 24.1664 24.1625 23.7937 24.1625 23.3332Z" fill="#FFBB01"/>
<path d="M32.4944 22.5H26.662C26.2019 22.5 25.8289 22.8731 25.8289 23.3332C25.8289 23.7937 26.2019 24.1664 26.662 24.1664H32.4944C32.9545 24.1664 33.3276 23.7937 33.3276 23.3332C33.3276 22.8731 32.9545 22.5 32.4944 22.5Z" fill="#FFBB01"/>
<path d="M14.9974 28.333C15.4575 28.333 15.8306 27.9603 15.8306 27.4998C15.8306 27.0397 15.4575 26.6666 14.9974 26.6666H6.66547C6.20534 26.6666 5.83228 27.0397 5.83228 27.4998C5.83228 27.9603 6.20534 28.333 6.66547 28.333H14.9974Z" fill="#FFBB01"/>
<path d="M18.3301 28.333H24.1625C24.6226 28.333 24.9957 27.9603 24.9957 27.4998C24.9957 27.0397 24.6226 26.6666 24.1625 26.6666H18.3301C17.87 26.6666 17.4969 27.0397 17.4969 27.4998C17.4969 27.9603 17.87 28.333 18.3301 28.333Z" fill="#FFBB01"/>
<path d="M37.4936 38.3333C37.0335 38.3333 36.6604 38.7065 36.6604 39.1667V47.5C36.6604 47.9606 36.2873 48.3333 35.8272 48.3333H2.49957C2.03945 48.3333 1.66638 47.9606 1.66638 47.5L1.66638 2.5C1.66638 2.03979 2.03945 1.66667 2.49957 1.66667L35.8272 1.66667C36.2873 1.66667 36.6604 2.03979 36.6604 2.5V18.1502C36.6604 18.6104 37.0335 18.9836 37.4936 18.9836C37.9537 18.9836 38.3268 18.6104 38.3268 18.1502V2.5C38.3268 1.11938 37.2076 0 35.8272 0L2.49957 0C1.11919 0 0 1.11938 0 2.5L0 47.5C0 48.881 1.11919 50 2.49957 50H35.8272C37.2076 50 38.3268 48.881 38.3268 47.5V39.1667C38.3268 38.7065 37.9537 38.3333 37.4936 38.3333Z" fill="#FFBB01"/>
</svg>
