<svg width="14" height="14" viewBox="0 0 14 14" fill="none" xmlns="http://www.w3.org/2000/svg">
<path d="M2.81256 13.0574H7.08784V8.51472H5.55181V7.01713H7.08784V5.14514C7.08784 4.11291 7.94916 3.27314 9.00788 3.27314H10.9279V4.77074H9.39189C8.96838 4.77074 8.62387 5.10662 8.62387 5.51953V7.01713H10.8586L10.6026 8.51472H8.62387V13.0574H12.0799C13.1387 13.0574 14 12.2177 14 11.1854V2.14995C14 1.11772 13.1387 0.277954 12.0799 0.277954H2.81256C1.75383 0.277954 0.892517 1.11772 0.892517 2.14995V11.1854C0.892517 12.2177 1.75383 13.0574 2.81256 13.0574ZM1.66053 2.14995C1.66053 1.53063 2.17734 1.02675 2.81256 1.02675H12.0799C12.7152 1.02675 13.232 1.53063 13.232 2.14995V11.1854C13.232 11.8048 12.7152 12.3086 12.0799 12.3086H9.39189V9.26352H11.2532L11.7652 6.26833H9.39189V5.51953H11.6959V2.52435H9.00788C7.52565 2.52435 6.31983 3.7 6.31983 5.14514V6.26833H4.7838V9.26352H6.31983V12.3086H2.81256C2.17734 12.3086 1.66053 11.8048 1.66053 11.1854V2.14995Z" fill="white"/>
</svg>
