<svg width="14" height="13" viewBox="0 0 14 13" fill="none" xmlns="http://www.w3.org/2000/svg">
<path d="M6.93691 0C3.33494 0 0.383179 2.90286 0.383179 6.4147C0.383179 9.90616 3.30804 12.7795 6.93691 12.7795C10.5613 12.7795 13.4906 9.91045 13.4906 6.4147C13.4906 2.90286 10.5389 0 6.93691 0ZM8.08894 11.9184C7.72033 11.9932 7.32862 12.0307 6.93691 12.0307C6.5452 12.0307 6.1535 11.9932 5.78489 11.9184V10.1662C5.78489 9.74684 5.90009 9.59708 6.05369 9.39487C6.1319 9.3077 6.1791 9.22951 6.5298 8.71354L5.93849 8.62365C4.41776 8.40652 3.81875 7.6352 3.58064 7.03616C3.27344 6.235 3.43474 5.23154 3.98775 4.59516C4.07225 4.49776 4.14136 4.33298 4.07995 4.1608C3.96465 3.81633 3.98005 3.26975 4.05685 3.06003C4.46406 3.11677 4.88277 3.40118 5.23198 3.60671C5.39288 3.69826 5.47728 3.67408 5.55448 3.68159C5.83509 3.62465 6.2728 3.48688 6.94461 3.48688C7.35932 3.48688 7.79713 3.54674 8.22724 3.66657C8.30414 3.66482 8.42774 3.72858 8.64195 3.60671C9.00695 3.38987 9.41146 3.11521 9.81697 3.06003C9.89377 3.26975 9.90917 3.81633 9.79397 4.1608C9.73247 4.33298 9.80157 4.49776 9.88617 4.59516C10.4391 5.23164 10.6004 6.235 10.2932 7.03616C10.0551 7.6352 9.45606 8.40652 7.93533 8.62365L7.34402 8.71354C7.70653 9.24687 7.74473 9.31083 7.82023 9.39487C7.97373 9.59708 8.08894 9.74684 8.08894 10.1662V11.9184ZM8.85695 11.7012V10.1662C8.85695 9.73934 8.76475 9.45483 8.64185 9.24511C9.80927 8.93818 10.6388 8.26417 11.0074 7.29824C11.3991 6.27995 11.2225 5.06686 10.5696 4.22817C10.6849 3.72653 10.6849 2.92528 10.4084 2.55088C10.2855 2.38621 10.1165 2.29631 9.90147 2.29631C9.89377 2.29631 9.89377 2.29631 9.89377 2.29631C9.29826 2.32771 8.82955 2.62011 8.32704 2.91777C7.86623 2.79795 7.39772 2.73808 6.92921 2.73808C6.4531 2.73808 5.97689 2.80545 5.55458 2.91777C5.02557 2.60675 4.56136 2.32693 3.94935 2.29631C3.75735 2.29631 3.58834 2.38621 3.46544 2.55088C3.18904 2.92528 3.18904 3.72653 3.30424 4.22817C2.65132 5.06686 2.47472 6.28736 2.86643 7.29824C3.23504 8.26417 4.06455 8.93818 5.23198 9.24511C5.13668 9.40764 5.06127 9.61736 5.03157 9.90119C4.79577 9.98045 4.59126 10.0063 4.40106 9.95179C4.20046 9.89397 4.04415 9.76342 3.90835 9.54073C3.60334 9.04114 3.08383 8.6333 2.49232 8.68634L2.55982 9.43221C2.83373 9.40774 3.10633 9.69029 3.24794 9.92322C3.48154 10.3068 3.79625 10.5583 4.18356 10.6699C4.47106 10.7525 4.73387 10.7505 5.01687 10.6916V11.7012C2.78193 10.9374 1.15119 8.85579 1.15119 6.4147C1.15119 3.3147 3.75735 0.748797 6.93691 0.748797C10.1165 0.748797 12.7226 3.3147 12.7226 6.4147C12.7226 8.85579 11.0919 10.9374 8.85695 11.7012Z" fill="white"/>
</svg>
