<svg width="14" height="14" viewBox="0 0 14 14" fill="none" xmlns="http://www.w3.org/2000/svg">
<path d="M1.97607 13.6314H11.2435C12.3022 13.6314 13.1635 12.7916 13.1635 11.7594V2.72392C13.1635 1.69169 12.3022 0.851929 11.2435 0.851929H1.97607C0.917348 0.851929 0.0560303 1.69169 0.0560303 2.72392V11.7594C0.0560303 12.7916 0.917348 13.6314 1.97607 13.6314ZM0.824046 2.72392C0.824046 2.1046 1.34086 1.60073 1.97607 1.60073H11.2435C11.8787 1.60073 12.3955 2.1046 12.3955 2.72392V11.7594C12.3955 12.3787 11.8787 12.8826 11.2435 12.8826H1.97607C1.34086 12.8826 0.824046 12.3787 0.824046 11.7594V2.72392Z" fill="white"/>
<path d="M6.60981 10.6112C8.51545 10.6112 10.0659 9.09961 10.0659 7.24166C10.0659 5.38371 8.51545 3.87207 6.60981 3.87207C4.70418 3.87207 3.15375 5.38371 3.15375 7.24166C3.15375 9.09961 4.70418 10.6112 6.60981 10.6112ZM6.60981 4.62087C8.09204 4.62087 9.29787 5.79652 9.29787 7.24166C9.29787 8.6868 8.09204 9.86245 6.60981 9.86245C5.12759 9.86245 3.92176 8.6868 3.92176 7.24166C3.92176 5.79652 5.12759 4.62087 6.60981 4.62087Z" fill="white"/>
<path d="M10.2317 4.4392C10.8594 4.4392 11.37 3.94133 11.37 3.3294C11.37 2.71747 10.8594 2.2196 10.2317 2.2196C9.60409 2.2196 9.09344 2.71747 9.09344 3.3294C9.09344 3.94133 9.60409 4.4392 10.2317 4.4392ZM10.2317 2.95947C10.4409 2.95947 10.6112 3.12546 10.6112 3.3294C10.6112 3.53335 10.4409 3.69934 10.2317 3.69934C10.0225 3.69934 9.8523 3.53335 9.8523 3.3294C9.8523 3.12546 10.0225 2.95947 10.2317 2.95947Z" fill="white"/>
</svg>
