<svg width="100" height="28" viewBox="0 0 100 28" fill="none" xmlns="http://www.w3.org/2000/svg">
<g clip-path="url(#clip0)">
<path fill-rule="evenodd" clip-rule="evenodd" d="M21.2112 0.00146484H2.81429C1.26324 0.00146484 0 1.27004 0 2.82766V21.3024C0 22.8605 1.26324 24.1286 2.81429 24.1286H18.383L17.6555 21.6054L19.4127 23.2325L21.0738 24.7626L24.0394 27.3408V2.82766C24.0255 1.27004 22.7627 0.00146484 21.2112 0.00146484V0.00146484ZM15.9118 17.8556C15.9118 17.8556 15.4178 17.2626 15.0055 16.7526C16.8041 16.2425 17.4907 15.126 17.4907 15.126C16.9275 15.498 16.3923 15.76 15.9118 15.939C15.2251 16.229 14.5664 16.408 13.9211 16.5321C12.603 16.7801 11.3951 16.7116 10.3654 16.5181C9.58262 16.3665 8.90992 16.16 8.34725 15.9255C8.03156 15.8015 7.688 15.6495 7.34493 15.4565C7.3036 15.429 7.26228 15.4155 7.22144 15.3875C7.19405 15.374 7.18012 15.36 7.16618 15.36C6.9192 15.2225 6.78178 15.126 6.78178 15.126C6.78178 15.126 7.44103 16.215 9.18476 16.7391C8.77249 17.2626 8.26461 17.8692 8.26461 17.8692C5.23073 17.7726 4.07753 15.7875 4.07753 15.7875C4.07753 11.3892 6.0543 7.81849 6.0543 7.81849C8.03108 6.34339 9.89831 6.38488 9.89831 6.38488L10.0357 6.55039C7.56452 7.25344 6.4387 8.34252 6.4387 8.34252C6.4387 8.34252 6.74094 8.17701 7.24883 7.95649C8.71772 7.30845 9.88485 7.14294 10.3654 7.08793C10.4475 7.07394 10.5162 7.06043 10.5989 7.06043C11.4359 6.94993 12.3835 6.92243 13.3718 7.03293C14.6764 7.18444 16.0766 7.57047 17.5041 8.34252C17.5041 8.34252 16.4197 7.30845 14.0859 6.6054L14.2781 6.38488C14.2781 6.38488 16.1587 6.34339 18.1221 7.81849C18.1221 7.81849 20.0988 11.3897 20.0988 15.7875C20.0988 15.7735 18.9456 17.7591 15.9118 17.8556ZM36.6425 5.90235H32.0844V11.0447L35.1188 13.7884V8.79755H36.7386C37.7683 8.79755 38.2762 9.29407 38.2762 10.0936V13.9124C38.2762 14.7119 37.7957 15.25 36.7386 15.25H32.0705V18.1587H36.6285C39.0724 18.1727 41.3653 16.9456 41.3653 14.1329V10.0246C41.3788 7.15694 39.0863 5.90235 36.6425 5.90235ZM60.5305 14.1329V9.91413C60.5305 8.39753 63.2492 8.053 64.0728 9.5696L66.5853 8.54952C65.5965 6.37089 63.7979 5.73684 62.3017 5.73684C59.8578 5.73684 57.4419 7.15694 57.4419 9.91413V14.1329C57.4419 16.9181 59.8578 18.3107 62.2469 18.3107C63.7845 18.3107 65.6243 17.5521 66.6401 15.567L63.9493 14.3259C63.2901 16.022 60.5305 15.6085 60.5305 14.1329ZM52.2246 10.4932C51.2776 10.2866 50.6457 9.94211 50.6049 9.34908C50.6596 7.92899 52.8425 7.87398 54.1192 9.23858L56.1373 7.68097C54.8746 6.13686 53.4465 5.72285 51.9776 5.72285C49.74 5.72285 47.5705 6.99143 47.5705 9.39058C47.5705 11.7202 49.3556 12.9748 51.3184 13.2783C52.3207 13.4163 53.4331 13.8159 53.4052 14.5054C53.323 15.815 50.6322 15.746 49.4103 14.2574L47.4609 16.091C48.6002 17.5661 50.1517 18.3107 51.6067 18.3107C53.8449 18.3107 56.3295 17.0146 56.4256 14.6434C56.5631 11.6512 54.3941 10.8932 52.2246 10.4932ZM43.0264 18.1452H46.1016V5.90235H43.0264V18.1452ZM94.8806 5.90235H90.3225V11.0447L93.3564 13.7884V8.79755H94.9767C96.0064 8.79755 96.5143 9.29407 96.5143 10.0936V13.9124C96.5143 14.7119 96.0338 15.25 94.9767 15.25H90.3086V18.1587H94.8806C97.3239 18.1727 99.6168 16.9456 99.6168 14.1329V10.0246C99.6168 7.15694 97.3239 5.90235 94.8806 5.90235ZM72.5162 5.73684C69.9897 5.73684 67.4776 7.11544 67.4776 9.94211V14.1194C67.4776 16.9181 70.0036 18.3242 72.5435 18.3242C75.0695 18.3242 77.5821 16.9181 77.5821 14.1194V9.94211C77.5821 7.12943 75.0421 5.73684 72.5162 5.73684ZM74.4929 14.1194C74.4929 15.0015 73.5045 15.4565 72.5296 15.4565C71.5412 15.4565 70.5528 15.0295 70.5528 14.1194V9.94211C70.5528 9.04557 71.5138 8.56304 72.4748 8.56304C73.4771 8.56304 74.4929 8.99056 74.4929 9.94211V14.1194ZM88.6201 9.94211C88.5514 7.07442 86.602 5.91586 84.0895 5.91586H79.2158V18.1587H82.3323V14.2709H82.8815L85.7092 18.1587H89.5537L86.2311 13.9539C87.7 13.4849 88.6201 12.2028 88.6201 9.94163V9.94211ZM84.1443 11.5962H82.3323V8.79755H84.1443C86.0802 8.79755 86.0802 11.5962 84.1443 11.5962Z" fill="white"/>
</g>
<defs>
<clipPath id="clip0">
<rect width="99.6169" height="27.3438" fill="white"/>
</clipPath>
</defs>
</svg>
