<svg width="50" height="50" viewBox="0 0 50 50" fill="none" xmlns="http://www.w3.org/2000/svg">
<path d="M48.3279 35.6334V33.3332H49.1611C49.391 33.3348 49.6111 33.2413 49.7694 33.0748C49.911 32.9165 49.9911 32.7123 49.9944 32.4999L48.5028 4.16667C48.3608 1.87339 46.4592 0.0858765 44.1617 0.0858765C41.8642 0.0858765 39.9625 1.87339 39.8206 4.16667L38.329 32.4999C38.3221 32.7269 38.4027 32.9475 38.554 33.1167C38.7192 33.2677 38.9385 33.3458 39.1623 33.3332H39.9955V35.6334L38.4206 38.7918C38.3018 39.0274 38.3018 39.3057 38.4206 39.5417L43.42 49.5416C43.4607 49.6336 43.5205 49.7158 43.5949 49.7833C43.6922 49.8733 43.8094 49.9392 43.9367 49.975H44.3948C44.5226 49.9392 44.6398 49.8733 44.7366 49.7833C44.8114 49.7158 44.8708 49.6336 44.9115 49.5416L49.911 39.5417C50.0298 39.3057 50.0298 39.0274 49.911 38.7918L48.3279 35.6334ZM40.037 31.6666L40.3873 24.9999H47.9361L48.3279 31.6666H40.037ZM41.487 4.20858C41.487 2.73113 42.6844 1.53322 44.1617 1.53322C45.639 1.53322 46.8364 2.73113 46.8364 4.20858L47.8445 23.3752H40.4788L40.5704 21.7085H45.2114C45.6719 21.7085 46.0446 21.3354 46.0446 20.8752C46.0446 20.4146 45.6719 20.0418 45.2114 20.0418H40.6538L41.487 4.20858ZM46.6614 33.3332V34.9999H41.662V33.3332H46.6614ZM44.9949 45.6334V39.9999H45.8282C46.2883 39.9999 46.6614 39.6267 46.6614 39.1665C46.6614 38.7063 46.2883 38.3332 45.8282 38.3332H42.4952C42.0351 38.3332 41.662 38.7063 41.662 39.1665C41.662 39.6267 42.0351 39.9999 42.4952 39.9999H43.3285V45.6334L40.0956 39.1665L41.3454 36.6665H46.9779L48.2278 39.1665L44.9949 45.6334Z" fill="#FFBB01"/>
<path d="M28.3302 10.8331C28.7904 10.8331 29.1634 10.4601 29.1634 9.99991C29.1634 9.53976 28.7904 9.16667 28.3302 9.16667H6.666C6.20585 9.16667 5.83276 9.53976 5.83276 9.99991V13.3328C5.83276 13.793 6.20585 14.1661 6.666 14.1661H28.3302C28.7904 14.1661 29.1634 13.793 29.1634 13.3328C29.1634 12.8727 28.7904 12.4996 28.3302 12.4996H7.49924V10.8331H28.3302Z" fill="#FFBB01"/>
<path d="M29.1635 18.3332C29.1635 17.873 28.7904 17.4999 28.3303 17.4999H9.99901C9.53886 17.4999 9.16577 17.873 9.16577 18.3332C9.16577 18.7933 9.53886 19.1664 9.99901 19.1664H28.3303C28.7904 19.1664 29.1635 18.7933 29.1635 18.3332Z" fill="#FFBB01"/>
<path d="M4.99951 22.4998C4.99951 22.9599 5.3726 23.333 5.83275 23.333H19.1646C19.6247 23.333 19.9978 22.9599 19.9978 22.4998C19.9978 22.0396 19.6247 21.6665 19.1646 21.6665H5.83275C5.3726 21.6665 4.99951 22.0396 4.99951 22.4998Z" fill="#FFBB01"/>
<path d="M24.1641 21.6665C23.7039 21.6665 23.3308 22.0396 23.3308 22.4998C23.3308 22.9599 23.7039 23.333 24.1641 23.333H27.497C27.9572 23.333 28.3303 22.9599 28.3303 22.4998C28.3303 22.0396 27.9572 21.6665 27.497 21.6665H24.1641Z" fill="#FFBB01"/>
<path d="M16.6649 26.6664C16.6649 26.2063 16.2918 25.8332 15.8316 25.8332H5.83275C5.3726 25.8332 4.99951 26.2063 4.99951 26.6664C4.99951 27.1266 5.3726 27.4997 5.83275 27.4997H15.8316C16.2918 27.4997 16.6649 27.1266 16.6649 26.6664Z" fill="#FFBB01"/>
<path d="M15.8316 30.8332C15.8316 30.373 15.4585 29.9999 14.9984 29.9999H5.83275C5.3726 29.9999 4.99951 30.373 4.99951 30.8332C4.99951 31.2933 5.3726 31.6664 5.83275 31.6664H14.9984C15.4585 31.6664 15.8316 31.2933 15.8316 30.8332Z" fill="#FFBB01"/>
<path d="M5.83275 34.1665C5.3726 34.1665 4.99951 34.5396 4.99951 34.9998C4.99951 35.4599 5.3726 35.833 5.83275 35.833H11.6654C12.1256 35.833 12.4987 35.4599 12.4987 34.9998C12.4987 34.5396 12.1256 34.1665 11.6654 34.1665H5.83275Z" fill="#FFBB01"/>
<path d="M32.4963 0L2.49972 0C1.11926 0 0 1.11938 0 2.49999L0 40.8332C0 42.2138 1.11926 43.3331 2.49972 43.3331H16.6648C17.1249 43.3331 17.498 42.96 17.498 42.4998C17.498 42.0396 17.1249 41.6665 16.6648 41.6665H2.49972C2.03956 41.6665 1.66648 41.2934 1.66648 40.8332L1.66648 7.49997L33.3296 7.49997V40.8332C33.3296 41.2934 32.9565 41.6665 32.4963 41.6665H29.9966C29.5365 41.6665 29.1634 42.0396 29.1634 42.4998C29.1634 42.96 29.5365 43.3331 29.9966 43.3331H32.4963C33.8768 43.3331 34.996 42.2138 34.996 40.8332V2.49999C34.996 1.11938 33.8768 0 32.4963 0ZM1.66648 5.83331L1.66648 2.49999C1.66648 2.03979 2.03956 1.66666 2.49972 1.66666L32.4963 1.66666C32.9565 1.66666 33.3296 2.03979 33.3296 2.49999V5.83331L1.66648 5.83331Z" fill="#FFBB01"/>
<path d="M23.3308 30.8332C21.9503 30.8332 20.8311 31.9524 20.8311 33.3329C20.8311 34.7133 21.9503 35.8326 23.3308 35.8326C24.7112 35.8326 25.8305 34.7133 25.8305 33.3329C25.8305 31.9524 24.7112 30.8332 23.3308 30.8332ZM23.3308 34.1661C22.8706 34.1661 22.4975 33.793 22.4975 33.3329C22.4975 32.8727 22.8706 32.4996 23.3308 32.4996C23.7909 32.4996 24.164 32.8727 24.164 33.3329C24.164 33.793 23.7909 34.1661 23.3308 34.1661Z" fill="#FFBB01"/>
<path d="M29.9966 33.3332C29.9954 32.4071 29.4827 31.557 28.6633 31.1249C28.9359 30.2395 28.6967 29.2764 28.0421 28.6213C27.387 27.9666 26.424 27.7273 25.5387 27.9999C25.105 27.1829 24.2559 26.6718 23.3307 26.6718C22.4055 26.6718 21.5564 27.1829 21.1227 27.9999C20.2373 27.7273 19.2743 27.9666 18.6193 28.6213C17.9647 29.2764 17.7254 30.2395 17.998 31.1249C17.1806 31.5587 16.67 32.4079 16.67 33.3332C16.67 34.2584 17.1806 35.1081 17.998 35.5414C17.7254 36.4248 17.9626 37.3863 18.6144 38.0414C18.7771 38.2037 18.9623 38.3413 19.1645 38.4499V49.1664C19.1661 49.5029 19.3699 49.8053 19.6812 49.933C19.9912 50.0636 20.3496 49.9945 20.5893 49.7581L23.3307 47.0082L26.0721 49.7581C26.2291 49.9143 26.4423 50.001 26.6636 49.9998C26.7731 50.0026 26.8813 49.9798 26.9802 49.933C27.2914 49.8053 27.4952 49.5029 27.4969 49.1664V38.4581C27.6991 38.3494 27.8842 38.2119 28.0469 38.0499C28.6987 37.3944 28.9359 36.4333 28.6633 35.5499C29.4852 35.1162 29.9986 34.2625 29.9966 33.3332ZM23.9222 45.2415C23.766 45.0836 23.5528 44.9949 23.3307 44.9949C23.1085 44.9949 22.8953 45.0836 22.7391 45.2415L20.831 47.158V38.7417L21.1227 38.6664C21.5564 39.4839 22.4055 39.9945 23.3307 39.9945C24.2559 39.9945 25.105 39.4839 25.5387 38.6664L25.8304 38.7417V47.158L23.9222 45.2415ZM27.4969 34.1665H27.3553C27.016 34.1649 26.7092 34.3691 26.5802 34.6833C26.4521 34.9953 26.5245 35.3538 26.7637 35.5914L26.8638 35.6915C27.1868 36.0167 27.1868 36.5416 26.8638 36.8667C26.7718 36.9631 26.6571 37.0347 26.5302 37.075H26.4053C26.1429 37.1157 25.8768 37.029 25.6888 36.8414L25.5887 36.7413C25.3503 36.5013 24.9902 36.4288 24.6778 36.5587C24.3649 36.6885 24.1619 36.9948 24.1639 37.3334V37.4998C24.1639 37.96 23.7908 38.3331 23.3307 38.3331C22.8705 38.3331 22.4974 37.96 22.4974 37.4998V37.3582C22.4991 37.0189 22.2948 36.7121 21.9807 36.5831C21.8802 36.5432 21.7724 36.5237 21.6642 36.5249C21.4429 36.5237 21.2297 36.6107 21.0726 36.7666L20.9725 36.8667C20.7846 37.0543 20.5185 37.1409 20.2561 37.0998H20.1312C20.0042 37.06 19.8895 36.9883 19.7975 36.8915C19.4745 36.5664 19.4745 36.0415 19.7975 35.7164L19.9062 35.6167C20.1454 35.3786 20.2178 35.0202 20.0893 34.7081C19.9603 34.3944 19.6539 34.1897 19.3146 34.1917H19.1645C18.7043 34.1917 18.3312 33.8186 18.3312 33.3584C18.3312 32.8978 18.7043 32.5251 19.1645 32.5251H19.3061C19.6454 32.5267 19.9521 32.322 20.0811 32.0083C20.2093 31.6962 20.1369 31.3377 19.8976 31.0997L19.7975 31C19.4708 30.6753 19.4692 30.1475 19.7935 29.8208C20.1181 29.4941 20.6458 29.492 20.9725 29.8167L21.0726 29.925C21.3102 30.1642 21.6691 30.2367 21.9807 30.1081C22.2948 29.9791 22.4991 29.6727 22.4974 29.3333V29.1665C22.4974 28.7063 22.8705 28.3332 23.3307 28.3332C23.7908 28.3332 24.1639 28.7063 24.1639 29.1665V29.3081C24.1623 29.6479 24.3665 29.9543 24.6806 30.0833C24.9923 30.2114 25.3511 30.1394 25.5887 29.8997L25.6888 29.8C26.0131 29.4733 26.5412 29.4713 26.8679 29.7956C27.1946 30.1203 27.1962 30.648 26.8719 30.9748L26.7637 31.0749C26.5245 31.3125 26.4521 31.6714 26.5802 31.9831C26.7092 32.2972 27.016 32.5015 27.3553 32.4998H27.4969C27.957 32.4998 28.3301 32.873 28.3301 33.3332C28.3301 33.7934 27.957 34.1665 27.4969 34.1665Z" fill="#FFBB01"/>
</svg>
