<svg width="15" height="15" viewBox="0 0 15 15" fill="none" xmlns="http://www.w3.org/2000/svg">
<path d="M12.6272 8.94153C12.2998 8.60215 11.9049 8.4207 11.4864 8.4207C11.0712 8.4207 10.6729 8.59879 10.332 8.93817L9.26545 9.99664C9.17769 9.9496 9.08994 9.90591 9.00556 9.86223C8.88405 9.80175 8.76929 9.74462 8.67141 9.68414C7.67233 9.05242 6.76439 8.22917 5.89357 7.16398C5.47167 6.63306 5.18815 6.18616 4.98226 5.73253C5.25903 5.48051 5.51555 5.21841 5.76532 4.9664C5.85982 4.87231 5.95433 4.77487 6.04884 4.68078C6.75764 3.97513 6.75764 3.06116 6.04884 2.35551L5.12739 1.43817C5.02276 1.33401 4.91475 1.22648 4.81349 1.11895C4.61098 0.910618 4.39834 0.695565 4.17895 0.493952C3.85155 0.171371 3.46002 0 3.04824 0C2.63646 0 2.23818 0.171371 1.90065 0.493952C1.89728 0.497312 1.89728 0.497312 1.8939 0.500672L0.746318 1.65323C0.314286 2.08333 0.0678927 2.60753 0.0138887 3.21573C-0.0671173 4.19691 0.223154 5.11089 0.445921 5.70901C0.992711 7.17742 1.80952 8.53831 3.02799 9.99664C4.50635 11.754 6.2851 13.1418 8.317 14.1196C9.09331 14.4859 10.1295 14.9194 11.2872 14.9933C11.3581 14.9966 11.4324 15 11.4999 15C12.2795 15 12.9343 14.7211 13.4474 14.1667C13.4508 14.1599 13.4575 14.1566 13.4609 14.1499C13.6364 13.9382 13.8389 13.7466 14.0516 13.5417C14.1967 13.4039 14.3452 13.2594 14.4903 13.1082C14.8245 12.7621 15 12.3589 15 11.9456C15 11.5289 14.8211 11.129 14.4802 10.793L12.6272 8.94153ZM13.8355 12.4798C13.8322 12.4798 13.8322 12.4832 13.8355 12.4798C13.7039 12.621 13.5689 12.7487 13.4238 12.8898C13.2044 13.0981 12.9816 13.3165 12.7723 13.5618C12.4314 13.9247 12.0298 14.0961 11.5032 14.0961C11.4526 14.0961 11.3986 14.0961 11.348 14.0927C10.3455 14.0289 9.41396 13.6391 8.71528 13.3065C6.80489 12.3858 5.12739 11.0786 3.73341 9.42204C2.58245 8.04099 1.8129 6.76411 1.30323 5.39315C0.989336 4.55645 0.874577 3.90457 0.925206 3.28965C0.958959 2.89651 1.11084 2.57056 1.39099 2.29167L2.54195 1.14583C2.70734 0.991263 2.88285 0.907258 3.05499 0.907258C3.26763 0.907258 3.43977 1.03495 3.54778 1.14247C3.55115 1.14583 3.55453 1.14919 3.5579 1.15255C3.76379 1.34409 3.95956 1.54234 4.16545 1.75403C4.27008 1.86156 4.37809 1.96909 4.48609 2.07997L5.40754 2.99731C5.76532 3.35349 5.76532 3.6828 5.40754 4.03898C5.30966 4.13643 5.21515 4.23387 5.11727 4.32796C4.83375 4.61694 4.56373 4.88575 4.27008 5.14785C4.26333 5.15457 4.25658 5.15793 4.2532 5.16465C3.96293 5.45363 4.01694 5.73589 4.07769 5.92742C4.08107 5.9375 4.08444 5.94758 4.08782 5.95766C4.32746 6.53562 4.66498 7.07997 5.17802 7.7285L5.1814 7.73186C6.11297 8.87433 7.09516 9.76478 8.17862 10.4469C8.317 10.5343 8.45876 10.6048 8.59377 10.672C8.71528 10.7325 8.83004 10.7897 8.92792 10.8501C8.94142 10.8569 8.95493 10.8669 8.96843 10.8737C9.08319 10.9308 9.19119 10.9577 9.30258 10.9577C9.58272 10.9577 9.75824 10.7829 9.81562 10.7258L10.9699 9.57661C11.0847 9.46237 11.267 9.3246 11.4796 9.3246C11.6889 9.3246 11.861 9.45565 11.9656 9.56989C11.969 9.57325 11.969 9.57325 11.9724 9.57661L13.8322 11.4281C14.1798 11.7708 14.1798 12.1237 13.8355 12.4798Z" fill="#949494"/>
<path d="M8.09545 3.62399C8.92491 3.7655 9.67838 4.1643 10.2799 4.77536C10.8814 5.38642 11.2708 6.15185 11.4133 6.99447C11.4481 7.20673 11.6286 7.35467 11.8343 7.35467C11.8597 7.35467 11.8818 7.35146 11.9071 7.34824C12.1414 7.30965 12.2966 7.08452 12.2586 6.84653C12.0876 5.82702 11.6127 4.89757 10.8877 4.16108C10.1628 3.42459 9.24782 2.94218 8.24425 2.76851C8.00997 2.72991 7.79153 2.8875 7.75037 3.12228C7.70922 3.35706 7.86118 3.5854 8.09545 3.62399Z" fill="#949494"/>
<path d="M14.9717 6.72184C14.69 5.04304 13.9112 3.51539 12.7145 2.2997C11.5178 1.08401 10.014 0.292852 8.36142 0.00661922C8.13031 -0.0351901 7.91186 0.125615 7.87071 0.360391C7.83272 0.598382 7.98785 0.820293 8.22212 0.862103C9.69741 1.11618 11.0429 1.82693 12.113 2.91076C13.183 3.9978 13.8795 5.36465 14.1296 6.86335C14.1644 7.07562 14.3449 7.22356 14.5507 7.22356C14.576 7.22356 14.5981 7.22034 14.6235 7.21712C14.8546 7.18175 15.0129 6.95662 14.9717 6.72184Z" fill="#949494"/>
</svg>
