<svg width="50" height="50" viewBox="0 0 50 50" fill="none" xmlns="http://www.w3.org/2000/svg">
<path d="M48.5664 20.9626L40.3158 29.2043L35.6072 24.4922L39.1658 20.9626C39.4491 20.6321 39.4299 20.1398 39.1219 19.8321C38.8143 19.5248 38.3215 19.5057 37.9906 19.7886L34.4239 23.3101L32.0734 20.9541L40.3158 12.7123C40.6389 12.3876 40.6389 11.8632 40.3158 11.5384C39.9907 11.2156 39.4658 11.2156 39.1406 11.5384L30.2984 20.3715C30.1405 20.5276 30.0518 20.7406 30.0518 20.9626C30.0518 21.1845 30.1405 21.3971 30.2984 21.5536L31.4818 22.7272L30.2984 23.9097C28.8994 22.5109 26.7085 22.2882 25.0563 23.3768L24.4064 22.7272C23.6255 21.9492 22.5675 21.5122 21.4643 21.5118C20.9431 21.5118 20.4258 21.6077 19.9391 21.7951L18.5141 20.3715L19.1058 19.7886C19.2636 19.6321 19.3524 19.4195 19.3524 19.1976C19.3524 18.9756 19.2636 18.7626 19.1058 18.6065L10.8304 10.3648C10.5036 10.0404 9.97544 10.0425 9.65111 10.3689C9.32638 10.6953 9.32841 11.2225 9.65518 11.5469L17.314 19.1976L16.7224 19.7801L12.5554 23.9011L9.61367 20.9541C9.457 20.7963 9.24418 20.7077 9.02199 20.7077C8.79981 20.7077 8.58658 20.7963 8.43032 20.9541C8.10681 21.2788 8.10681 21.8032 8.43032 22.128L11.3802 25.0751L10.1968 26.2487L9.08832 27.4726L1.42947 19.7886C1.27321 19.6309 1.05997 19.5423 0.83779 19.5423C0.615606 19.5423 0.40278 19.6309 0.246112 19.7886C-0.0769917 20.1134 -0.0769917 20.6378 0.246112 20.9626L8.49665 29.2043C8.65413 29.36 8.86695 29.447 9.08832 29.4458C9.3101 29.447 9.52293 29.36 9.68041 29.2043L10.8304 28.0303L12.0052 29.2043C10.3787 30.8299 10.3787 33.4644 12.0052 35.09L13.5723 36.6302C13.7286 36.7879 13.9418 36.8765 14.164 36.8765C14.3862 36.8765 14.599 36.7879 14.7557 36.6302C15.0788 36.3054 15.0788 35.781 14.7557 35.4562L13.2138 33.9164C12.743 33.4477 12.4785 32.8111 12.4785 32.1473C12.4785 31.4831 12.743 30.8465 13.2138 30.3783L13.7973 29.7953L19.6974 23.9011C20.6879 22.9625 22.2408 22.9625 23.2312 23.9011L28.5315 29.1958C28.8147 29.5262 28.7956 30.0185 28.488 30.3262C28.1799 30.6335 27.6871 30.6526 27.3567 30.3697L23.5145 26.532C23.1856 26.2056 22.6538 26.2072 22.327 26.5361C22.0003 26.8649 22.0019 27.3958 22.3311 27.7222L26.1729 31.5603C26.8875 32.2794 27.9659 32.4965 28.903 32.1095C29.8406 31.7225 30.451 30.8083 30.4486 29.7953C30.4477 29.1332 30.1841 28.4982 29.7149 28.0303L26.2816 24.6003C27.2387 24.167 28.3634 24.358 29.1232 25.0832L36.1989 32.1514C36.6648 32.6205 36.9257 33.2554 36.9241 33.9164C36.9257 34.5774 36.6648 35.2119 36.1989 35.681L33.8403 38.0371L31.4236 40.4431L29.7149 42.1581L24.9981 46.8698C24.673 47.1926 24.148 47.1926 23.8229 46.8698C23.4998 46.5454 23.4998 46.021 23.8229 45.6963L29.1651 40.3846C29.4027 40.1813 29.5065 39.8618 29.4333 39.5578C29.36 39.2537 29.1224 39.0163 28.818 38.9431C28.5132 38.87 28.1938 38.9732 27.9899 39.211L22.6811 44.5056C22.3506 44.7885 21.8578 44.7694 21.5498 44.4621C21.2421 44.1544 21.223 43.6621 21.5062 43.3317L26.8065 38.0371C26.9644 37.881 27.0531 37.668 27.0531 37.446C27.0531 37.2241 26.9644 37.0115 26.8065 36.855C26.4814 36.5322 25.9564 36.5322 25.6313 36.855L20.3225 42.1581C19.9977 42.4809 19.4728 42.4809 19.1477 42.1581C18.9898 42.0016 18.9011 41.789 18.9011 41.5671C18.9011 41.3451 18.9898 41.1321 19.1477 40.976L24.448 35.681C24.6058 35.5249 24.6946 35.3119 24.6946 35.09C24.6946 34.868 24.6058 34.6554 24.448 34.4989C24.1228 34.1761 23.5979 34.1761 23.2727 34.4989L17.9643 39.8021C17.6375 40.126 17.1094 40.1244 16.785 39.798C16.4603 39.4716 16.4623 38.9439 16.7891 38.62L23.1979 32.2262C23.5246 31.8998 23.5246 31.3705 23.1979 31.0441C22.8711 30.7177 22.3413 30.7177 22.0145 31.0441L15.5724 37.4627C14.5974 38.4379 14.5974 40.0175 15.5724 40.9927C16.0029 41.4317 16.5828 41.6935 17.1972 41.7252C17.2717 42.9926 18.2866 44.0028 19.5558 44.0727C19.6262 45.3438 20.6423 46.3584 21.9144 46.4288C21.9384 47.0548 22.1972 47.6495 22.6395 48.0938C23.3907 48.8425 24.5334 49.0364 25.4897 48.5767L26.1729 49.2677C26.8749 49.9693 27.9264 50.1897 28.8518 49.8287C29.7767 49.4677 30.4001 48.5942 30.44 47.6027C31.0679 47.5836 31.6649 47.3243 32.1068 46.8783C32.5398 46.4442 32.7978 45.8666 32.832 45.2548C34.1044 45.1849 35.1201 44.1699 35.1905 42.8987C36.183 42.8593 37.0575 42.2362 37.4189 41.3122C37.7807 40.3878 37.5601 39.3378 36.8573 38.6366L36.2656 38.0537L37.449 36.8716C38.2279 36.0916 38.6653 35.0347 38.6657 33.9327C38.6462 33.1087 38.3821 32.3091 37.9072 31.6351L39.1658 30.3783L39.7575 30.9693C40.0827 31.2921 40.6076 31.2921 40.9327 30.9693L49.7497 22.1361C50.0728 21.8118 50.0728 21.287 49.7497 20.9626C49.5935 20.8049 49.3802 20.7163 49.158 20.7163C48.9359 20.7163 48.723 20.8049 48.5664 20.9626ZM12.0304 26.8482L17.3393 21.5536L18.5141 22.7272L13.2138 28.0303L12.0304 26.8482ZM28.5315 48.0438C28.2064 48.3665 27.6814 48.3665 27.3567 48.0438L26.765 47.4527L27.9484 46.2788L28.5315 46.8617C28.6894 47.0178 28.7781 47.2308 28.7781 47.4527C28.7781 47.6747 28.6894 47.8877 28.5315 48.0438ZM30.8901 45.6877C30.5649 46.0105 30.04 46.0105 29.7149 45.6877L29.1651 45.0967L29.7568 44.5056L30.3399 43.9227L30.932 44.5056C31.0895 44.6621 31.1782 44.8747 31.1782 45.0967C31.1782 45.3186 31.0895 45.5316 30.932 45.6877H30.8901ZM33.2487 43.3317C32.9235 43.6544 32.3986 43.6544 32.0734 43.3317L31.4818 42.7406L32.657 41.5671L33.2487 42.1581C33.5718 42.4829 33.5718 43.0073 33.2487 43.3317ZM35.6072 40.976C35.4506 41.1333 35.2377 41.2219 35.0156 41.2219C34.7934 41.2219 34.5801 41.1333 34.4239 40.976L33.8403 40.3846L34.9989 39.211L35.5905 39.8021C35.9181 40.122 35.9259 40.6468 35.6072 40.976ZM36.782 30.3783L31.4818 25.0832L32.657 23.9097L37.9658 29.2043L36.782 30.3783Z" fill="#FFBB01"/>
<path d="M15.831 13.3201H34.1657C34.6259 13.3201 34.9991 12.9473 34.9991 12.4876V0.832504C34.9991 0.372757 34.6259 0 34.1657 0L15.831 0C15.3707 0 14.9976 0.372757 14.9976 0.832504V12.4876C14.9976 12.9473 15.3707 13.3201 15.831 13.3201ZM16.6643 9.99005C17.5848 9.99005 18.3311 10.7356 18.3311 11.6551H16.6643V9.99005ZM33.3323 11.6551H31.6655C31.6655 10.7356 32.4118 9.99005 33.3323 9.99005V11.6551ZM33.3323 3.33002C32.4118 3.33002 31.6655 2.5845 31.6655 1.66501H33.3323V3.33002ZM33.3323 4.99502V8.32504C31.4909 8.32504 29.9987 9.81607 29.9987 11.6551H19.9979C19.9979 9.81607 18.5053 8.32504 16.6643 8.32504V4.99502C18.5053 4.99502 19.9979 3.504 19.9979 1.66501L29.9987 1.66501C29.9987 3.504 31.4909 4.99502 33.3323 4.99502ZM16.6643 1.66501H18.3311C18.3311 2.5845 17.5848 3.33002 16.6643 3.33002V1.66501Z" fill="#FFBB01"/>
<path d="M24.998 9.99005C26.839 9.99005 28.3316 8.49902 28.3316 6.66003C28.3316 4.82104 26.839 3.33002 24.998 3.33002C23.1566 3.33002 21.6644 4.82104 21.6644 6.66003C21.6644 8.49902 23.1566 9.99005 24.998 9.99005ZM24.998 4.99503C25.9185 4.99503 26.6648 5.74054 26.6648 6.66003C26.6648 7.57953 25.9185 8.32504 24.998 8.32504C24.0775 8.32504 23.3312 7.57953 23.3312 6.66003C23.3312 5.74054 24.0775 4.99503 24.998 4.99503Z" fill="#FFBB01"/>
<path d="M31.6652 6.66002C31.6652 7.11977 31.2921 7.49252 30.8318 7.49252C30.3716 7.49252 29.9984 7.11977 29.9984 6.66002C29.9984 6.20027 30.3716 5.82751 30.8318 5.82751C31.2921 5.82751 31.6652 6.20027 31.6652 6.66002Z" fill="#FFBB01"/>
<path d="M19.9977 6.66002C19.9977 7.11977 19.6246 7.49252 19.1643 7.49252C18.7041 7.49252 18.3309 7.11977 18.3309 6.66002C18.3309 6.20027 18.7041 5.82751 19.1643 5.82751C19.6246 5.82751 19.9977 6.20027 19.9977 6.66002Z" fill="#FFBB01"/>
<path d="M49.8584 5.36978L46.5248 0.374755C46.3697 0.144272 46.1105 0.00646973 45.833 0.00646973C45.5555 0.00646973 45.2958 0.144272 45.1412 0.374755L41.8076 5.36978C41.7165 5.50514 41.6672 5.66449 41.666 5.82749V9.15751C41.666 9.61726 42.0392 9.99001 42.4994 9.99001C42.9597 9.99001 43.3328 9.61726 43.3328 9.15751V6.07708L45.833 2.33081L48.3332 6.07708V14.985C48.3332 15.4448 48.7063 15.8175 49.1666 15.8175C49.6268 15.8175 50 15.4448 50 14.985V5.82749C49.9988 5.66449 49.9495 5.50514 49.8584 5.36978Z" fill="#FFBB01"/>
<path d="M46.6666 11.655V6.66002C46.6666 6.20027 46.2934 5.82751 45.8332 5.82751C45.3729 5.82751 44.9998 6.20027 44.9998 6.66002V11.655C44.9998 12.1148 45.3729 12.4875 45.8332 12.4875C46.2934 12.4875 46.6666 12.1148 46.6666 11.655Z" fill="#FFBB01"/>
<path d="M0.829624 7.49256H1.66302L1.66302 17.4826C1.66302 17.9424 2.03618 18.3151 2.49642 18.3151C2.95665 18.3151 3.32981 17.9424 3.32981 17.4826L3.32981 6.66006C3.32981 6.20031 2.95665 5.82755 2.49642 5.82755H2.44636L4.9966 2.26462L7.54684 5.82755H7.49679C7.03655 5.82755 6.66339 6.20031 6.66339 6.66006V8.32507C6.66339 8.78481 7.03655 9.15757 7.49679 9.15757C7.95703 9.15757 8.33018 8.78481 8.33018 8.32507V7.49256H9.16358C9.47488 7.49094 9.75933 7.31655 9.90135 7.03972C10.0434 6.76331 10.0189 6.43039 9.83868 6.17714L5.6717 0.349612C5.51463 0.133356 5.26396 0.00531006 4.9966 0.00531006C4.72925 0.00531006 4.47817 0.133356 4.3215 0.349612L0.154525 6.17714C-0.0261528 6.43039 -0.0501618 6.76331 0.0918573 7.03972C0.233876 7.31655 0.518321 7.49094 0.829624 7.49256Z" fill="#FFBB01"/>
<path d="M4.99658 11.6551V14.1526C4.99658 14.6123 5.36974 14.9851 5.82998 14.9851C6.29022 14.9851 6.66337 14.6123 6.66337 14.1526V11.6551C6.66337 11.1953 6.29022 10.8226 5.82998 10.8226C5.36974 10.8226 4.99658 11.1953 4.99658 11.6551Z" fill="#FFBB01"/>
</svg>
