<svg width="51" height="50" viewBox="0 0 51 50" fill="none" xmlns="http://www.w3.org/2000/svg">
<path d="M50.1627 24.5763H31.1043C30.6441 24.5763 30.2709 24.9557 30.2709 25.4237C30.2709 25.8917 30.6441 26.2712 31.1043 26.2712H49.3293V34.7458H45.1627V28.8136C45.1627 28.3456 44.7896 27.9661 44.3293 27.9661C43.8691 27.9661 43.496 28.3456 43.496 28.8136V34.7458H20.9961V26.2712H25.996C26.4563 26.2712 26.8294 25.8917 26.8294 25.4237C26.8294 24.9557 26.4563 24.5763 25.996 24.5763H20.1627C19.7025 24.5763 19.3294 24.9557 19.3294 25.4237V35.5932C19.3294 36.0612 19.7025 36.4407 20.1627 36.4407H27.6627V38.1356H20.1627C19.7025 38.1356 19.3294 38.515 19.3294 38.9831V44.9153H16.8294V44.0678C16.8294 43.5998 16.4563 43.2203 15.9961 43.2203H13.4961V38.9831C13.4961 38.515 13.1229 38.1356 12.6627 38.1356C12.2025 38.1356 11.8294 38.515 11.8294 38.9831V44.0678C11.8294 44.5358 12.2025 44.9153 12.6627 44.9153H15.1627V46.6102H6.82942V44.9153H9.32941C9.78962 44.9153 10.1627 44.5358 10.1627 44.0678V38.9831C10.1627 38.515 9.78962 38.1356 9.32941 38.1356C8.86921 38.1356 8.49608 38.515 8.49608 38.9831V43.2203H5.99608C5.53588 43.2203 5.16275 43.5998 5.16275 44.0678V44.9153H1.82943C1.36922 44.9153 0.996094 45.2947 0.996094 45.7627C0.996094 46.2307 1.36922 46.6102 1.82943 46.6102H5.16275V47.4576C5.16275 47.9256 5.53588 48.3051 5.99608 48.3051H15.9961C16.4563 48.3051 16.8294 47.9256 16.8294 47.4576V46.6102H19.3294V49.1525C19.3294 49.6205 19.7025 50 20.1627 50H50.1627C50.6229 50 50.996 49.6205 50.996 49.1525V38.9831C50.996 38.515 50.6229 38.1356 50.1627 38.1356H42.6627V36.4407H50.1627C50.6229 36.4407 50.996 36.0612 50.996 35.5932V25.4237C50.996 24.9557 50.6229 24.5763 50.1627 24.5763ZM49.3293 48.3051H20.9961V39.8305H43.496V45.7627C43.496 46.2307 43.8691 46.6102 44.3293 46.6102C44.7896 46.6102 45.1627 46.2307 45.1627 45.7627V39.8305H49.3293V48.3051ZM40.996 38.1356H29.3294V36.4407H40.996V38.1356Z" fill="#FFBB01"/>
<path d="M25.996 27.9661C24.6154 27.9661 23.496 29.1045 23.496 30.5085C23.496 31.9129 24.6154 33.0508 25.996 33.0508C27.3766 33.0508 28.496 31.9129 28.496 30.5085C28.496 29.1045 27.3766 27.9661 25.996 27.9661ZM25.996 31.3559C25.5358 31.3559 25.1626 30.9765 25.1626 30.5085C25.1626 30.0405 25.5358 29.661 25.996 29.661C26.4562 29.661 26.8293 30.0405 26.8293 30.5085C26.8293 30.9765 26.4562 31.3559 25.996 31.3559Z" fill="#FFBB01"/>
<path d="M30.9962 33.0508C31.4564 33.0508 31.8295 32.6714 31.8295 32.2034V28.8136C31.8295 28.3455 31.4564 27.9661 30.9962 27.9661C30.536 27.9661 30.1628 28.3455 30.1628 28.8136V32.2034C30.1628 32.6714 30.536 33.0508 30.9962 33.0508Z" fill="#FFBB01"/>
<path d="M35.1628 32.2034V28.8136C35.1628 28.3455 34.7896 27.9661 34.3294 27.9661C33.8692 27.9661 33.4961 28.3455 33.4961 28.8136V32.2034C33.4961 32.6714 33.8692 33.0508 34.3294 33.0508C34.7896 33.0508 35.1628 32.6714 35.1628 32.2034Z" fill="#FFBB01"/>
<path d="M38.496 32.2034V28.8136C38.496 28.3455 38.1229 27.9661 37.6627 27.9661C37.2025 27.9661 36.8293 28.3455 36.8293 28.8136V32.2034C36.8293 32.6714 37.2025 33.0508 37.6627 33.0508C38.1229 33.0508 38.496 32.6714 38.496 32.2034Z" fill="#FFBB01"/>
<path d="M41.8293 32.2034V28.8136C41.8293 28.3455 41.4561 27.9661 40.9959 27.9661C40.5357 27.9661 40.1626 28.3455 40.1626 28.8136V32.2034C40.1626 32.6714 40.5357 33.0508 40.9959 33.0508C41.4561 33.0508 41.8293 32.6714 41.8293 32.2034Z" fill="#FFBB01"/>
<path d="M27.6626 43.2204C27.2024 43.2204 26.8293 43.5998 26.8293 44.0678C26.8293 44.5358 26.4562 44.9153 25.996 44.9153C25.5358 44.9153 25.1626 44.5358 25.1626 44.0678C25.1626 43.5998 25.5358 43.2204 25.996 43.2204C26.4562 43.2204 26.8293 42.8409 26.8293 42.3729C26.8293 41.9049 26.4562 41.5255 25.996 41.5255C24.6154 41.5255 23.496 42.6638 23.496 44.0678C23.496 45.4722 24.6154 46.6102 25.996 46.6102C27.3766 46.6102 28.496 45.4722 28.496 44.0678C28.496 43.5998 28.1228 43.2204 27.6626 43.2204Z" fill="#FFBB01"/>
<path d="M30.9962 41.5255C30.536 41.5255 30.1628 41.9049 30.1628 42.3729V45.7627C30.1628 46.2307 30.536 46.6102 30.9962 46.6102C31.4564 46.6102 31.8295 46.2307 31.8295 45.7627V42.3729C31.8295 41.9049 31.4564 41.5255 30.9962 41.5255Z" fill="#FFBB01"/>
<path d="M34.3294 41.5255C33.8692 41.5255 33.4961 41.9049 33.4961 42.3729V45.7627C33.4961 46.2307 33.8692 46.6102 34.3294 46.6102C34.7896 46.6102 35.1628 46.2307 35.1628 45.7627V42.3729C35.1628 41.9049 34.7896 41.5255 34.3294 41.5255Z" fill="#FFBB01"/>
<path d="M37.6627 41.5255C37.2025 41.5255 36.8293 41.9049 36.8293 42.3729V45.7627C36.8293 46.2307 37.2025 46.6102 37.6627 46.6102C38.1229 46.6102 38.496 46.2307 38.496 45.7627V42.3729C38.496 41.9049 38.1229 41.5255 37.6627 41.5255Z" fill="#FFBB01"/>
<path d="M40.9959 41.5255C40.5357 41.5255 40.1626 41.9049 40.1626 42.3729V45.7627C40.1626 46.2307 40.5357 46.6102 40.9959 46.6102C41.4561 46.6102 41.8293 46.2307 41.8293 45.7627V42.3729C41.8293 41.9049 41.4561 41.5255 40.9959 41.5255Z" fill="#FFBB01"/>
<path d="M7.31284 30.3476C7.42311 30.3972 7.54233 30.4229 7.66277 30.4237C8.04892 30.4179 8.38014 30.1427 8.46355 29.7596C8.54656 29.376 8.3602 28.9849 8.01271 28.8136C4.09548 26.988 1.95722 22.6344 2.87559 18.3528C3.79356 14.0713 7.52036 11.0183 11.8294 11.017C12.675 11.0166 13.5164 11.1362 14.3294 11.3729C14.7445 11.495 15.1819 11.274 15.3377 10.8647C17.4349 5.3331 22.6664 1.68755 28.4961 1.695C35.1359 1.7281 40.8732 6.42056 42.3295 13.0086C42.4039 13.3484 42.6749 13.607 43.0126 13.6612C46.6495 14.2521 49.3265 17.4412 49.3294 21.1865C49.3257 21.4331 49.309 21.6793 49.2793 21.9239C49.2488 22.1515 49.3106 22.3824 49.4502 22.5628C49.5902 22.7432 49.7961 22.8583 50.0211 22.8814C50.2437 22.905 50.4662 22.8367 50.6384 22.6915C50.8109 22.5467 50.9187 22.3373 50.9378 22.1105C50.9745 21.8039 50.994 21.4956 50.996 21.1865C51.0131 16.8168 48.0269 13.0281 43.8293 12.0933C41.9995 4.9971 35.71 0.0364959 28.4961 8.17463e-05C22.2363 -0.0201943 16.5596 3.73295 14.0377 9.55963C13.3122 9.40115 12.5716 9.32128 11.8294 9.32211C6.74155 9.32749 2.34296 12.9329 1.25694 17.9879C0.171331 23.0428 2.69045 28.1851 7.31284 30.3476Z" fill="#FFBB01"/>
<path d="M14.3294 31.0257C14.3982 31.0377 14.469 31.0377 14.5378 31.0257C15.4879 30.7799 16.3993 30.4005 17.2461 29.8986C17.4377 29.7852 17.5769 29.599 17.633 29.3813C17.6892 29.1632 17.6579 28.9319 17.546 28.7374C17.3144 28.3369 16.8091 28.2007 16.4128 28.4325C15.695 28.8554 14.9239 29.1777 14.1211 29.39C13.6609 29.4483 13.3345 29.8754 13.3919 30.3434C13.4493 30.8114 13.8692 31.1433 14.3294 31.0849V31.0257Z" fill="#FFBB01"/>
<path d="M10.9962 36.4407C11.4564 36.4407 11.8295 36.0612 11.8295 35.5932V22.2884L13.6378 25.0426C13.7912 25.2793 14.0508 25.4225 14.3295 25.4237C14.4935 25.4258 14.6538 25.3753 14.7877 25.2797C15.1682 25.0211 15.2723 24.4993 15.0213 24.1103L11.6879 19.0256C11.6879 19.0256 11.6879 19.0256 11.646 18.983C11.4882 18.7827 11.2489 18.666 10.9962 18.666C10.7435 18.666 10.5043 18.7827 10.3464 18.983C10.3464 18.983 10.3464 18.983 10.3045 19.0256L6.97116 24.1103C6.76771 24.496 6.88652 24.9756 7.24541 25.2173C7.60389 25.4589 8.08443 25.3832 8.35462 25.0426L10.1629 22.2884V35.5932C10.1629 36.0612 10.536 36.4407 10.9962 36.4407Z" fill="#FFBB01"/>
<path d="M32.2874 15.3983C31.9053 15.143 31.3918 15.2489 31.1375 15.6358L29.3292 18.39V8.47463C29.3292 8.00663 28.9561 7.62717 28.4959 7.62717C28.0357 7.62717 27.6626 8.00663 27.6626 8.47463V18.39L25.8543 15.6358C25.7046 15.3524 25.4104 15.1794 25.0942 15.1893C24.7781 15.1993 24.4949 15.39 24.3626 15.6822C24.2308 15.9743 24.2727 16.3173 24.4709 16.5681L27.8042 21.6528C27.9592 21.8871 28.2184 22.0273 28.4959 22.0273C28.7734 22.0273 29.0326 21.8871 29.1876 21.6528L32.521 16.5681C32.772 16.1791 32.6678 15.6569 32.2874 15.3983Z" fill="#FFBB01"/>
</svg>
