<svg width="50" height="50" viewBox="0 0 50 50" fill="none" xmlns="http://www.w3.org/2000/svg">
<path d="M44.2622 48.3333H4.91794C4.46528 48.3333 4.09827 48.7065 4.09827 49.1667C4.09827 49.6269 4.46528 50 4.91794 50H44.2622C44.7148 50 45.0818 49.6269 45.0818 49.1667C45.0818 48.7065 44.7148 48.3333 44.2622 48.3333Z" fill="#FFBB01"/>
<path d="M9.01626 30C11.2796 30 13.1146 31.8656 13.1146 34.1667V37.5C13.1146 37.9602 13.4816 38.3333 13.9343 38.3333C14.387 38.3333 14.754 37.9602 14.754 37.5V34.1667C14.7548 31.5865 13.0878 29.3123 10.6556 28.575V26.5833C12.5639 26.1873 13.9347 24.4804 13.9343 22.5V18.2251C15.3811 17.845 16.3921 16.519 16.3933 15V12.5C16.3933 12.0398 16.0263 11.6667 15.5736 11.6667H6.55725C3.84129 11.6667 1.63922 13.9054 1.63922 16.6667V20C1.64042 21.519 2.6514 22.845 4.09824 23.2251L4.09824 28.575C1.66604 29.3123 -0.000922243 31.5865 -0.000121782 34.1667L-0.000121782 45.8333C-0.000121782 46.2935 0.366889 46.6667 0.81955 46.6667C1.27221 46.6667 1.63922 46.2935 1.63922 45.8333L1.63922 34.1667C1.63922 31.8656 3.47428 30 5.73758 30H9.01626ZM12.295 22.5C12.295 23.8806 11.1939 25 9.83594 25H5.73758V23.3333H6.55725C7.46257 23.3333 8.19659 22.5871 8.19659 21.6667V18.3333H12.295V22.5ZM3.27856 20L3.27856 16.6667C3.27856 14.8258 4.74661 13.3333 6.55725 13.3333H14.754V15C14.754 15.9204 14.0199 16.6667 13.1146 16.6667H7.37692C6.92426 16.6667 6.55725 17.0398 6.55725 17.5V21.6667H4.91791C4.01259 21.6667 3.27856 20.9204 3.27856 20ZM5.73758 26.6667H9.01626V28.3333H5.73758L5.73758 26.6667Z" fill="#FFBB01"/>
<path d="M46.7211 24.1667V21.9332C48.7222 20.9684 49.9982 18.9185 49.9998 16.6667V15.8333C49.9998 12.6115 47.4311 9.99999 44.2621 9.99999H36.0654C34.9051 9.99429 33.7969 10.4891 33.0156 11.3611C32.2344 12.2331 31.8533 13.4009 31.967 14.5752C32.1799 16.379 33.4975 17.8459 35.2457 18.2251V22.5C35.2453 24.4804 36.6161 26.1873 38.5244 26.5833V28.575C36.0922 29.3123 34.4252 31.5865 34.426 34.1667V37.5C34.426 37.9602 34.793 38.3333 35.2457 38.3333C35.6983 38.3333 36.0654 37.9602 36.0654 37.5V34.1667C36.0654 31.8656 37.9004 30 40.1637 30H43.4424C45.7057 30 47.5408 31.8656 47.5408 34.1667V45.8333C47.5408 46.2935 47.9078 46.6667 48.3604 46.6667C48.8131 46.6667 49.1801 46.2935 49.1801 45.8333V34.1667C49.1809 31.5865 47.5139 29.3123 45.0817 28.575V26.5251C46.0647 26.1719 46.7215 25.2266 46.7211 24.1667ZM33.6063 14.4165C33.5443 13.7146 33.7764 13.0188 34.2455 12.5C34.709 11.9731 35.3702 11.6703 36.0654 11.6667H44.2621C46.5254 11.6667 48.3604 13.5323 48.3604 15.8333V16.6667C48.3592 18.4041 47.2974 19.9585 45.6965 20.5668H45.6309C45.2486 20.7052 44.848 20.7837 44.4426 20.8H42.6227C42.1701 20.8 41.8031 20.4268 41.8031 19.9666V17.5C41.8031 17.0398 41.436 16.6667 40.9834 16.6667H36.2046C34.9023 16.696 33.7848 15.7288 33.6063 14.4165ZM36.885 22.5V18.3333H40.1637V20C40.1637 21.3806 41.2647 22.5 42.6227 22.5H44.5078C44.7047 22.5 44.8932 22.5 45.0817 22.4499V24.1667C45.0817 24.6269 44.7147 25 44.2621 25H39.344C37.9861 25 36.885 23.8806 36.885 22.5ZM40.1637 28.3333V26.6667H43.4424V28.3333H40.1637Z" fill="#FFBB01"/>
<path d="M44.2622 34.1667C43.8095 34.1667 43.4425 34.5398 43.4425 35V42.5C43.4425 43.8806 42.3415 45 40.9835 45H32.7868V41.6667H39.3441C39.7968 41.6667 40.1638 41.2936 40.1638 40.8334V35C40.1638 34.5398 39.7968 34.1667 39.3441 34.1667C38.8915 34.1667 38.5245 34.5398 38.5245 35V40H30.3278C29.1571 40.0012 28.0757 40.6372 27.4909 41.6683C26.9062 42.6994 26.9062 43.9693 27.4917 45H21.6884C22.2739 43.9693 22.2739 42.6994 21.6892 41.6683C21.1045 40.6372 20.023 40.0012 18.8524 40H10.6556V35C10.6556 34.5398 10.2886 34.1667 9.83597 34.1667C9.38331 34.1667 9.0163 34.5398 9.0163 35V40.8334C9.0163 41.2936 9.38331 41.6667 9.83597 41.6667H16.3933V45H8.19662C6.83864 45 5.73761 43.8806 5.73761 42.5V35C5.73761 34.5398 5.3706 34.1667 4.91794 34.1667C4.46528 34.1667 4.09827 34.5398 4.09827 35V42.5C4.09827 44.8011 5.93332 46.6667 8.19662 46.6667H40.9835C43.2468 46.6667 45.0818 44.8011 45.0818 42.5V35C45.0818 34.5398 44.7148 34.1667 44.2622 34.1667ZM18.0327 45V41.6667H18.8524C19.7577 41.6667 20.4917 42.4129 20.4917 43.3334C20.4917 44.2538 19.7577 45 18.8524 45H18.0327ZM28.6884 43.3334C28.6884 42.4129 29.4224 41.6667 30.3278 41.6667H31.1474V45H30.3278C29.4224 45 28.6884 44.2538 28.6884 43.3334Z" fill="#FFBB01"/>
<path d="M9.01631 10H26.2294C28.0401 10 29.5081 8.50749 29.5081 6.66667V2.5C29.5081 1.11939 28.4071 0 27.0491 0L15.5737 0C14.2157 0 13.1147 1.11939 13.1147 2.5V3.82487L8.43438 8.57504C8.20185 8.8147 8.13381 9.17318 8.26228 9.48324C8.38795 9.79452 8.68532 9.99838 9.01631 10ZM14.5163 4.7583C14.6696 4.60124 14.7552 4.38802 14.754 4.16667V2.5C14.754 2.0398 15.121 1.66667 15.5737 1.66667L27.0491 1.66667C27.5018 1.66667 27.8688 2.0398 27.8688 2.5V6.66667C27.8688 7.58708 27.1348 8.33334 26.2294 8.33334H10.9919L14.5163 4.7583Z" fill="#FFBB01"/>
<path d="M20.4917 4.16663H17.213C16.7603 4.16663 16.3933 4.53975 16.3933 4.99996C16.3933 5.46017 16.7603 5.83329 17.213 5.83329H20.4917C20.9443 5.83329 21.3113 5.46017 21.3113 4.99996C21.3113 4.53975 20.9443 4.16663 20.4917 4.16663Z" fill="#FFBB01"/>
<path d="M25.4097 4.16663H23.7704C23.3177 4.16663 22.9507 4.53975 22.9507 4.99996C22.9507 5.46017 23.3177 5.83329 23.7704 5.83329H25.4097C25.8624 5.83329 26.2294 5.46017 26.2294 4.99996C26.2294 4.53975 25.8624 4.16663 25.4097 4.16663Z" fill="#FFBB01"/>
<path d="M19.6719 18.3333C18.3139 18.3333 17.2129 19.4527 17.2129 20.8333V29.1667C17.2129 30.5473 18.3139 31.6667 19.6719 31.6667H24.2045L28.0571 36.3668C28.2785 36.6366 28.6423 36.7367 28.9669 36.6166C29.2914 36.4974 29.508 36.1841 29.508 35.8333V31.6667C30.8659 31.6667 31.967 30.5473 31.967 29.1667V20.8333C31.967 19.4527 30.8659 18.3333 29.508 18.3333H19.6719ZM30.3276 20.8333V29.1667C30.3276 29.6269 29.9606 30 29.508 30H28.6883C28.2356 30 27.8686 30.3731 27.8686 30.8333V33.5335L25.2211 30.2999C25.065 30.1095 24.8337 29.9996 24.5899 30H19.6719C19.2192 30 18.8522 29.6269 18.8522 29.1667V20.8333C18.8522 20.3731 19.2192 20 19.6719 20H29.508C29.9606 20 30.3276 20.3731 30.3276 20.8333Z" fill="#FFBB01"/>
<path d="M21.3114 23.3333H23.7704C24.223 23.3333 24.5901 22.9602 24.5901 22.5C24.5901 22.0398 24.223 21.6667 23.7704 21.6667H21.3114C20.8587 21.6667 20.4917 22.0398 20.4917 22.5C20.4917 22.9602 20.8587 23.3333 21.3114 23.3333Z" fill="#FFBB01"/>
<path d="M27.0491 26.6667H21.3114C20.8587 26.6667 20.4917 27.0398 20.4917 27.5C20.4917 27.9602 20.8587 28.3333 21.3114 28.3333H27.0491C27.5017 28.3333 27.8687 27.9602 27.8687 27.5C27.8687 27.0398 27.5017 26.6667 27.0491 26.6667Z" fill="#FFBB01"/>
<path d="M27.8687 23.3333H26.2293C25.7767 23.3333 25.4097 23.7065 25.4097 24.1667C25.4097 24.6269 25.7767 25 26.2293 25H27.8687C28.3213 25 28.6884 24.6269 28.6884 24.1667C28.6884 23.7065 28.3213 23.3333 27.8687 23.3333Z" fill="#FFBB01"/>
</svg>
