<svg width="14" height="11" viewBox="0 0 14 11" fill="none" xmlns="http://www.w3.org/2000/svg">
<path d="M13.3271 1.52675C12.5026 1.5638 12.5206 1.56078 12.4274 1.56838L12.9157 0.208751C12.9157 0.208751 11.3914 0.755431 11.005 0.853223C9.9902 -0.0360707 8.48177 -0.075363 7.40335 0.570864C6.52023 1.10019 6.04622 2.00918 6.20433 3.07163C4.48559 2.83909 3.03746 2.04477 1.89414 0.705706L1.53253 0.282265L1.26233 0.766058C0.920819 1.37738 0.807416 2.07636 0.942919 2.73419C0.99852 3.00406 1.09302 3.26146 1.22392 3.50248L0.913719 3.38529L0.876918 3.89063C0.839617 4.40396 1.01492 5.0032 1.34593 5.49342C1.43913 5.63148 1.55913 5.78309 1.71123 5.93266L1.55093 5.90867L1.74654 6.48772C2.00364 7.24851 2.53765 7.83712 3.23067 8.16433C2.53855 8.45068 1.97944 8.6334 1.06042 8.92814L0.219604 9.19763L0.99622 9.61161C1.29233 9.76946 2.33865 10.2966 3.37247 10.4548C5.67052 10.8062 8.25787 10.52 9.9997 8.99054C11.4668 7.70228 11.9482 5.86977 11.8482 3.96278C11.8331 3.67408 11.9142 3.39855 12.0766 3.18707C12.402 2.76363 13.3251 1.52958 13.3271 1.52675ZM11.4625 2.73857C11.1928 3.08967 11.0577 3.53807 11.0819 4.001C11.1828 5.92457 10.646 7.41631 9.48629 8.4346C8.13157 9.62419 5.94642 10.0911 3.49137 9.71564C3.04676 9.64769 2.58725 9.49549 2.20694 9.34349C2.97746 9.08502 3.57247 8.85462 4.53339 8.4112L5.87482 7.79217L4.39379 7.69974C3.68438 7.65548 3.09366 7.32027 2.73056 6.77603C2.92336 6.76511 3.10926 6.73469 3.29437 6.68438L4.7069 6.30082L3.28257 5.96074C2.59045 5.79548 2.19594 5.39173 1.98684 5.08207C1.84954 4.87859 1.75984 4.67014 1.70603 4.47797C1.84884 4.51531 2.01534 4.54192 2.28385 4.56786L3.60217 4.695L2.55765 3.90057C1.80504 3.32825 1.50343 2.4684 1.72454 1.6418C4.07338 4.01708 6.83124 3.83856 7.10884 3.90135C7.04774 3.32269 7.04614 3.32133 7.03014 3.26624C6.67464 2.04096 7.45375 1.41882 7.80516 1.20822C8.53917 0.768398 9.7043 0.702099 10.5113 1.42672C10.6856 1.5831 10.9213 1.64463 11.1419 1.5912C11.3399 1.54323 11.5024 1.49243 11.6615 1.43715L11.3303 2.3593L11.7531 2.35959C11.6733 2.46392 11.5776 2.58881 11.4625 2.73857Z" fill="white"/>
</svg>
